<?xml version="1.0" encoding="utf-8"?>
<!-- Generator: Adobe Illustrator 16.0.3, SVG Export Plug-In . SVG Version: 6.00 Build 0)  -->
<!DOCTYPE svg PUBLIC "-//W3C//DTD SVG 1.1//EN" "http://www.w3.org/Graphics/SVG/1.1/DTD/svg11.dtd">
<svg version="1.1" id="Layer_1" xmlns="http://www.w3.org/2000/svg" xmlns:xlink="http://www.w3.org/1999/xlink" x="0px" y="0px"
	 width="611.403px" height="505.362px" viewBox="0.604 143.327 611.403 505.362"
	 enable-background="new 0.604 143.327 611.403 505.362" xml:space="preserve">
<g>
	<g>
		<g>
			<path fill="#FFFFFF" d="M477.073,319.644c1.53-16.926-0.096-27.062,1.052-42.075c-2.965-3.347-6.598-9.275-11.57-7.363
				c-3.442,15.778,2.772,39.493-3.156,50.586c-16.352-1.243-28.974,0.096-43.127,0c-5.546-0.096-12.335-0.478-17.882-3.156
				c4.208-16.065,0.383-29.357-1.052-46.378c-3.155,0-6.311,0-9.467,0c-2.868,10.041-1.243,23.333-1.052,34.712
				c0.096,5.259,0.479,12.431-3.155,14.726c-13.388-5.929-55.367-11.953-53.741,8.415c9.371,1.913,24.002,1.53,31.556,2.104
				c6.885,39.397-53.55,46.091-70.571,23.142c-2.199-2.964-3.347-8.606-5.259-12.623c-2.486-5.259-4.972-8.702-5.259-13.674
				c-1.339-27.636,24.48-51.542,54.793-45.327c1.339,6.312,8.702,7.077,12.623,10.519c3.634,3.156,4.59,8.032,9.467,9.467
				c3.92-3.442,8.511-6.216,10.519-11.571c-8.989-6.885-18.36-20.081-33.66-22.089c-11.283-1.53-22.567,1.147-34.712,3.156
				c-2.008,1.53-3.729,3.251-5.259,5.259c-5.929-0.956-7.172,2.678-11.571,3.156c-3.442,5.737-6.789,11.475-11.57,15.778
				c-0.861,6.503-2.295,12.432-7.363,14.727c-8.224-9.945,2.773-27.062-2.104-39.971c-7.746,0.86-14.535-2.869-21.038,0
				c-0.191,28.4,6.024,53.55,2.104,75.831c-1.913,10.997,0.478,23.524,1.052,35.764c4.112,2.964,10.231-2.008,14.726,1.052
				c2.486-9.658-3.825-30.887,3.156-41.023c8.224,2.582,7.458,12.049,10.519,17.882c2.677,5.164,7.363,13.292,12.623,16.83
				c7.554,5.068,21.419,5.164,30.504,7.363c11.093,2.677,22.759-6.216,32.608-4.208c3.634-2.678,7.841-4.781,12.622-6.312
				c6.407-8.032,9.084-25.245,18.934-26.297c4.59,5.738,1.243,22.472,3.156,33.66c3.155,1.53,10.231-0.574,13.674-2.104
				c-0.287-15.013,1.817-27.635,1.052-43.222c19.604-5.164,42.649-5.164,62.156-4.208c-5.833,9.945-2.678,33.66-1.052,48.482
				c2.295,1.912,7.746,0.669,11.57,1.052c4.973-9.371-0.286-35.286,3.156-49.534c4.781,0.86,8.128,3.06,14.726,2.104
				c2.486-4.016,0.479-11.284-1.052-14.726C485.105,318.4,480.707,322.225,477.073,319.644z"/>
		</g>
		<g>
			<path fill="#FFFFFF" d="M215.921,271.162c-1.626,17.117-2.2,37.581-2.104,50.585c-20.272-5.355-43.892,0.669-62.156,1.052
				c-3.155-15.3,2.964-34.999-2.104-49.534c-4.112-1.53-8.798-2.391-14.727-2.104c-4.686,2.964-5.164,22.376,0,25.245
				c-2.677,5.259,0.096,18.36-1.052,22.089c-2.391,2.295-7.937-3.538-11.57,0c-4.208,2.486-0.574,12.813-3.156,16.83
				c3.06,3.155,8.319-2.295,11.57,1.052c-0.191,0.382-0.478,0.669-0.765,0.956c3.634,3.634,2.773,13.77,2.869,20.082
				c0.096,10.614,0.478,21.898-2.104,29.452c4.017,2.582,11.188-3.92,16.83,0c2.964-13.866-1.338-35.094,6.312-44.274
				c-0.957-2.199-3.251-3.155-3.156-6.311c18.073,0.382,37.868,2.869,54.315,5.068c0.287-1.338,0.957-2.391,2.486-2.964
				c3.825-0.478,1.625,4.303,2.104,6.312c1.912,8.893,0.191,24.193,0,38.919c4.207-1.817,11.953,0,15.778-2.104
				c-4.112-30.313,5.068-58.331-1.052-88.453c2.391-3.538,4.112-9.467,3.156-18.934
				C226.249,270.684,220.894,271.162,215.921,271.162z"/>
		</g>
	</g>
	<g>
		<g>
			<path fill="#FFFFFF" d="M310.781,203.459c-11.666-30.504-30.409-54.315-68.467-56.897c-10.136-0.669-16.734-2.677-24.193-3.155
				c-17.117-0.957-37.772,6.98-60.052,8.415c0.574,4.303,4.303,5.546,9.467,5.26c6.598,7.841,13.865,14.917,18.934,24.193
				c3.729-0.86,3.442-2.964,6.311,0c7.363,31.27,26.966,50.203,53.742,62.156c3.347,1.243,2.582-1.625,4.207-2.104
				c3.825,5.355,11.093,7.172,17.882,9.467c1.625-0.478,0.86-3.347,4.208-2.104c8.988,3.825,22.185-3.155,29.452,2.104
				c3.347-2.295,9.275-2.008,12.623-4.208c4.494-0.861,8.51,4.303,10.519,1.052c-6.503-8.319-6.216-24.002-9.467-33.66
				C314.988,210.727,312.12,206.997,310.781,203.459z"/>
		</g>
		<g>
			<path fill="#FFFFFF" d="M341.095,246.586c25.054-4.973,45.518-23.428,64.26-36.815c2.868-2.104,6.598-2.486,8.415-4.208
				c3.347-3.251,6.98-11.475,10.519-15.778c7.172-4.016,18.073-8.128,25.245-14.726c0.86-0.765,6.98-3.538,3.155-5.26
				c-8.606-0.765-18.455-6.215-28.4-6.311c-4.207-0.096-8.511,2.008-12.622,2.104c-9.467,0.287-18.743-2.2-27.35-1.052
				c-14.917,1.913-24.288,10.806-36.815,13.674c-9.18,9.467-18.073,19.125-25.245,30.504c2.2,19.508,10.232,35.668,12.527,52.499
				c2.199,0.287,4.303,0.669,6.502,1.147C340.903,255.288,339.373,250.985,341.095,246.586z"/>
		</g>
	</g>
	<g>
		<g>
			<path fill="#FFFFFF" d="M610.948,440.991c-3.538-2.772-13.292,0.67-16.83-2.104c-2.104-13.005,3.442-34.999,1.052-45.326
				c-4.207,0.382-10.136-0.956-12.622,1.052c-4.017,13.483,2.391,32.321-4.208,44.179c-7.363-2.104-14.152,2.678-21.037,3.156
				c-13.005,0.956-25.628-3.252-37.868-2.104c-1.338-7.745-4.59-13.674-6.311-21.037c-0.383-2.486,4.781,0.573,3.155-3.155
				c-4.303-6.407-2.582-19.508-2.104-25.246c-5.068,0.957-10.901,1.052-13.675,4.208c-0.86,4.781,2.009,13.292-2.104,14.727
				c-8.988-3.061-12.432-12.049-21.037-15.778c-9.562-4.112-20.751-0.096-34.712-3.156c-11.667,4.495-21.803,7.458-29.453,15.778
				c-3.155,3.443-4.016,8.225-8.415,10.52c-1.529,3.729-3.347,11.666-7.362,9.467c-4.781-9.658,2.868-26.105-3.156-36.816
				c-4.686-0.861-6.311,1.435-10.519,1.052c-2.964,18.36-4.398,41.119-5.26,61.105c-0.19,3.538,2.965,8.224-1.052,10.519
				c-7.937-3.729-14.057-10.901-19.985-16.83c-6.216-6.216-10.806-14.057-16.83-19.985c-3.347-3.348-8.224-5.068-11.57-8.415
				c-6.694-6.599-10.328-16.353-18.934-21.038c0.86,18.934-2.965,45.613-4.208,66.364c-0.382,6.98,2.391,15.108-4.208,17.882
				c-4.303-3.538-2.391-9.181-4.208-13.675c-1.817-4.59-6.502-8.606-8.415-13.674c-6.407-16.734-17.595-32.417-23.141-51.638
				c-5.833-0.096-6.024-5.929-10.519-7.363c-12.145,0.287-19.986-1.339-29.261-1.052l0,0l0,0c-0.096,0-0.191-0.096-0.191-0.096l0,0
				c-2.199-0.478-4.303-0.861-6.502-1.147c0.669,5.259,0.86,10.519,0.191,15.97c7.172,2.008,15.491,1.721,24.193,4.207
				c-3.347,21.42-15.778,42.171-26.297,63.208c-3.251,6.407-4.016,15.874-11.571,18.934c-5.164-2.486-7.267-8.128-9.467-13.674
				c-5.068-4.208-11.857-11.762-11.57-17.882c17.308,0.382,30.6-14.918,27.349-34.712c-0.287-1.626-4.208-13.292-6.312-14.727
				c-2.008-1.435-5.164-2.199-7.363-4.207c-2.678-2.391-3.729-5.451-5.259-6.312c-18.647-10.71-51.829,0.383-74.779-1.052
				c1.625,19.89,4.686,41.31-4.208,56.896c-9.372-2.199-18.169-4.973-23.142-11.57c5.26-4.208,11.858-7.076,14.727-13.675
				c-0.957-9.371-2.486-13.196-9.467-22.089c-6.885-8.702-14.153-18.552-30.504-17.882c-6.12,0.287-13.196,2.773-19.986,3.156
				c-11.379,0.574-23.045-2.104-31.556,2.104c-0.382,14.631,5.068,34.808-1.052,45.326c-3.251,2.009-10.423,0.096-12.623,3.156
				c-0.669,5.259,0.956,8.128,1.052,12.622c3.825,3.921,7.076-3.538,10.519,0c4.112,3.921,0.191,10.901,0,18.934
				c-0.191,8.702,2.295,18.169,2.104,24.193c16.447,1.816,33.755,2.965,51.638,2.104c11.188-0.573,24.001-1.052,29.452-4.207
				c3.538-2.104,6.598-5.164,7.363-7.363c2.582-6.885,6.79-18.456,15.778-18.934c0.669,7.459-0.287,19.029,1.052,28.4
				c4.686,2.773,9.658,1.626,15.778,1.052c6.024-10.327-1.147-24.193,3.156-33.66c12.623,0.67,19.699-3.538,28.401,1.052
				c5.164,13.483,17.786,19.412,21.037,34.712c11.762,1.339,25.627,0.479,36.816,0c3.538-8.032,3.92-19.315,8.415-26.297
				c14.248,5.068,38.728-0.096,54.793,3.156c-0.096,2.677-4.494,1.147-3.156,5.259c6.216,3.442,6.312,12.623,13.674,14.727
				c6.981,2.008,15.97-3.251,26.297-1.052c6.216-19.029-0.287-48.577,1.052-68.468c4.208,1.243,5.26,5.642,8.415,8.415
				c2.965,2.582,6.599,3.729,9.467,6.312c4.686,4.303,8.129,10.519,12.623,14.727c4.686,4.398,10.71,7.362,15.778,11.57
				c7.268,6.024,13.005,13.196,22.089,18.934c1.913,1.147,4.208,5.546,7.363,3.155c2.582-8.605,0.86-21.611,3.155-30.504
				c6.79,8.415,10.806,21.324,21.038,27.349c1.529,0.956,6.693,1.626,10.519,3.155c7.268,2.869,17.786,8.129,30.504,4.208
				c2.009,1.816-1.816,3.634,3.156,3.155c11.283-4.59,23.428-8.128,31.556-15.778c4.877,2.965-2.391,9.276,1.052,13.675
				c5.164-0.765,11.38-0.574,15.778-2.104c3.825-13.675,1.722-33.469,7.363-45.326c17.499-5.068,39.685,1.147,59.001,1.052
				c0.86,4.303-5.068,2.008-4.208,6.311c2.104,13.102,1.817,27.827-1.052,37.868c6.216,0.191,11.284-0.67,15.778-2.104
				c0.669-13.77-1.339-30.121,1.052-42.074c3.155,1.816,7.172,2.677,12.622,2.104C611.235,453.614,613.339,445.582,610.948,440.991z
				 M80.229,442.043c-16.83-0.382-33.66,4.591-47.43,1.053c-3.156-8.129-2.104-20.368-3.156-30.505
				C53.167,398.821,109.682,419.476,80.229,442.043z M90.748,485.266c-13.579,9.754-34.329,5.738-56.897,6.312
				c1.435-10.327-1.625-17.499-2.104-30.504c19.603-0.574,35.381,0.669,54.793,2.104c3.729-1.147,1.243,3.06,2.104,5.259
				C89.888,471.879,94.382,477.521,90.748,485.266z M139.134,451.511c-8.319-6.694-3.92-27.158-3.156-37.868
				c14.344,0.191,33.852-3.06,49.534,2.104c1.721,11.38,11.857,19.03,6.311,31.557C176.428,457.439,159.694,453.423,139.134,451.511
				z M273.966,467.288c-12.24,0.287-23.906-0.669-32.608-1.052c6.407-13.961,9.371-31.365,17.882-43.223
				c1.243-0.191,1.913,0.191,2.104,1.052C265.646,437.74,275.018,455.049,273.966,467.288z M502.51,477.902
				c-5.643,0.383-5.164-5.354-9.467-6.311c-12.145,13.674-36.912,15.683-55.846,7.363c-10.614-12.91-18.359-31.844-14.726-55.846
				c10.71-6.215,24.958-18.359,42.17-15.777c9.658,1.434,15.109,7.172,22.09,12.622c6.406-0.287,4.877-8.511,12.622-7.363
				C500.788,430.951,506.812,456.482,502.51,477.902z"/>
		</g>
	</g>
	<g>
		<path fill="#FFFFFF" d="M158.068,586.915v-48.769c0-0.669,0.382-0.956,1.052-0.956h15.204c2.964,0,5.26,0.765,6.79,2.295
			s2.391,3.825,2.391,6.789v11.667c0,1.147-0.382,2.199-1.147,2.964c-0.765,0.86-1.721,1.339-2.869,1.53v0.096
			c1.147,0.191,2.104,0.669,2.869,1.529c0.765,0.861,1.147,1.817,1.147,2.965v11.666c0,2.965-0.765,5.26-2.391,6.789
			c-1.625,1.53-3.825,2.296-6.79,2.296H159.12c-0.287,0-0.574-0.096-0.765-0.287C158.164,587.489,158.068,587.298,158.068,586.915z
			 M166.77,558.419h5.833c0.861,0,1.435-0.191,1.913-0.669c0.478-0.479,0.669-1.052,0.669-1.817v-7.841
			c0-1.722-0.861-2.582-2.582-2.582h-5.833V558.419z M166.77,579.647h5.833c1.721,0,2.582-0.86,2.582-2.582v-7.745
			c0-1.722-0.861-2.582-2.582-2.582h-5.833V579.647z"/>
		<path fill="#FFFFFF" d="M189.911,586.915v-48.769c0-0.669,0.383-0.956,1.052-0.956h15.97c2.964,0,5.259,0.765,6.789,2.295
			c1.53,1.53,2.295,3.825,2.295,6.789v15.491c0,4.304-1.53,7.076-4.686,8.415l4.399,16.639c0.191,0.766-0.096,1.147-0.86,1.147
			h-6.598c-0.574,0-0.957-0.286-1.052-0.86l-4.208-16.16h-4.398v15.969c0,0.287-0.096,0.574-0.287,0.766
			c-0.191,0.19-0.478,0.286-0.765,0.286h-6.598c-0.287,0-0.574-0.096-0.765-0.286C190.007,587.489,189.911,587.298,189.911,586.915z
			 M198.518,562.531h6.311c1.721,0,2.582-0.861,2.582-2.582v-11.953c0-1.722-0.861-2.582-2.582-2.582h-6.311V562.531z"/>
		<path fill="#FFFFFF" d="M222.328,586.915v-48.769c0-0.287,0.096-0.573,0.287-0.765c0.191-0.191,0.382-0.287,0.669-0.287h23.428
			c0.669,0,1.052,0.287,1.052,0.956v6.407c0,0.765-0.382,1.052-1.052,1.052h-15.969v12.813h12.145c0.669,0,1.052,0.383,1.052,1.052
			v6.312c0,0.765-0.383,1.052-1.052,1.052h-12.145v12.813h15.969c0.383,0,0.669,0.096,0.765,0.191
			c0.191,0.191,0.191,0.383,0.191,0.766v6.406c0,0.67-0.383,1.052-1.052,1.052h-23.428c-0.287,0-0.479-0.096-0.669-0.286
			C222.424,587.489,222.328,587.298,222.328,586.915z"/>
		<path fill="#FFFFFF" d="M252.163,538.529c0-0.096,0-0.096,0-0.191c0-0.765,0.382-1.147,1.243-1.147h6.12
			c0.86,0,1.243,0.382,1.339,1.243l2.486,29.739h0.287l6.311-29.835c0.191-0.766,0.669-1.147,1.435-1.147h3.825
			c0.765,0,1.243,0.382,1.434,1.147l6.216,29.835h0.382l2.582-29.739c0.096-0.766,0.478-1.243,1.339-1.243h6.12
			c0.861,0,1.243,0.382,1.243,1.147c0,0.096,0,0.096,0,0.191l-5.546,48.29c-0.095,0.766-0.478,1.243-1.338,1.243h-6.502
			c-0.765,0-1.243-0.382-1.435-1.147l-6.598-28.783l-6.694,28.783c-0.191,0.766-0.669,1.052-1.434,1.052h-6.407
			c-0.86,0-1.243-0.382-1.338-1.243L252.163,538.529z"/>
		<path fill="#FFFFFF" d="M299.21,586.915v-48.769c0-0.669,0.383-0.956,1.052-0.956h6.598c0.67,0,1.052,0.287,1.052,0.956v48.769
			c0,0.287-0.096,0.574-0.286,0.766c-0.191,0.19-0.479,0.286-0.766,0.286h-6.598C299.593,587.967,299.21,587.681,299.21,586.915z"/>
		<path fill="#FFFFFF" d="M314.224,586.915v-48.769c0-0.669,0.383-0.956,1.052-0.956h6.312c0.573,0,0.956,0.287,1.147,0.765
			l9.658,27.062h0.383v-26.871c0-0.669,0.382-0.956,1.052-0.956h6.598c0.67,0,1.052,0.287,1.052,0.956v48.769
			c0,0.287-0.096,0.574-0.286,0.766c-0.191,0.19-0.479,0.286-0.766,0.286h-6.311c-0.574,0-0.957-0.286-1.147-0.86l-9.754-27.062
			h-0.287v26.966c0,0.67-0.383,1.052-1.052,1.052h-6.599c-0.287,0-0.573-0.096-0.765-0.286
			C314.319,587.489,314.224,587.298,314.224,586.915z"/>
		<path fill="#FFFFFF" d="M347.692,578.787v-32.513c0-2.964,0.765-5.259,2.295-6.789s3.825-2.295,6.79-2.295h8.414
			c2.965,0,5.26,0.765,6.79,2.391c1.53,1.53,2.391,3.825,2.391,6.789v6.599c0,0.669-0.383,0.956-1.052,0.956h-6.407
			c-0.669,0-1.052-0.287-1.052-0.956v-4.877c0-1.722-0.86-2.582-2.582-2.582h-4.59c-1.722,0-2.582,0.86-2.582,2.582v28.974
			c0,1.722,0.86,2.582,2.582,2.582h4.59c1.722,0,2.582-0.86,2.582-2.582v-8.51h-3.251c-0.67,0-1.052-0.287-1.052-0.957v-6.406
			c0-0.67,0.382-1.052,1.052-1.052h10.71c0.669,0,1.052,0.382,1.052,1.052v17.69c0,2.965-0.766,5.26-2.391,6.789
			c-1.53,1.53-3.825,2.391-6.79,2.391h-8.414c-2.965,0-5.26-0.765-6.79-2.295C348.457,584.238,347.692,581.848,347.692,578.787z"/>
		<path fill="#FFFFFF" d="M396.652,578.787v-32.513c0-2.964,0.766-5.259,2.391-6.789c1.53-1.53,3.825-2.295,6.885-2.295h7.172
			c2.965,0,5.26,0.765,6.79,2.391c1.529,1.53,2.391,3.825,2.391,6.789v6.885c0,0.67-0.383,0.957-1.052,0.957h-6.407
			c-0.669,0-1.052-0.287-1.052-0.957v-5.067c0-1.722-0.86-2.582-2.582-2.582h-3.347c-1.722,0-2.582,0.86-2.582,2.582v28.974
			c0,1.722,0.86,2.582,2.582,2.582h3.347c1.722,0,2.582-0.86,2.582-2.582v-5.067c0-0.67,0.383-1.052,1.052-1.052h6.407
			c0.286,0,0.573,0.095,0.765,0.286s0.287,0.479,0.287,0.766v6.885c0,2.964-0.766,5.26-2.391,6.789
			c-1.53,1.53-3.825,2.391-6.79,2.391h-7.172c-2.964,0-5.259-0.765-6.885-2.295S396.652,581.848,396.652,578.787z"/>
		<g>
			<path fill="#FFFFFF" d="M428.496,563.104V546.37c0-2.964,0.765-5.259,2.295-6.789c1.529-1.53,3.824-2.295,6.789-2.295h7.172
				c2.964,0,5.26,0.765,6.789,2.295c1.53,1.53,2.295,3.825,2.295,6.789v16.734c0,2.965-0.765,5.26-2.295,6.79
				c-1.529,1.529-3.825,2.295-6.789,2.295h-7.172c-2.965,0-5.26-0.766-6.789-2.295C429.261,568.364,428.496,566.069,428.496,563.104
				z M436.91,561.479c0,1.721,0.861,2.581,2.582,2.581h3.634c1.722,0,2.582-0.86,2.582-2.581V547.9c0-1.722-0.86-2.582-2.582-2.582
				h-3.634c-1.721,0-2.582,0.86-2.582,2.582V561.479z"/>
			<path fill="#FFFFFF" d="M428.974,579.361h24.48c0.286,0,0.478,0.382,0.478,1.052v6.598c0,0.67-0.191,1.052-0.478,1.052h-24.48
				c-0.191,0-0.287-0.096-0.383-0.286c-0.095-0.191-0.095-0.479-0.095-0.766v-6.693
				C428.496,579.647,428.591,579.361,428.974,579.361z"/>
		</g>
	</g>
	<g>
		<path fill="#FFFFFF" d="M218.694,620.098c0.478-1.053,1.052-1.913,1.817-2.773s1.721-1.435,2.678-1.913
			c0.956-0.478,2.104-0.765,3.347-0.765s2.486,0.191,3.729,0.765c1.53,0.67,2.677,1.53,3.538,2.678
			c0.86,1.147,1.243,2.391,1.339,3.634l-3.156,0.67c0-0.574-0.096-1.053-0.287-1.53c-0.191-0.479-0.382-0.86-0.669-1.147
			c-0.287-0.383-0.574-0.67-0.956-0.86c-0.382-0.287-0.669-0.479-1.052-0.574c-0.765-0.383-1.53-0.479-2.295-0.383
			c-0.765,0.096-1.435,0.287-2.008,0.67c-0.574,0.382-1.147,0.765-1.625,1.339c-0.479,0.573-0.861,1.147-1.147,1.816
			c-0.287,0.765-0.479,1.435-0.574,2.199c-0.096,0.766,0,1.53,0.191,2.199c0.191,0.67,0.574,1.339,0.957,1.913
			c0.478,0.573,1.052,0.956,1.721,1.339c0.382,0.191,0.765,0.286,1.243,0.382c0.478,0.096,0.86,0.096,1.338,0.096
			c0.479,0,0.861-0.191,1.339-0.382c0.478-0.191,0.861-0.479,1.243-0.861l2.008,2.582c-0.574,0.479-1.147,0.86-1.817,1.147
			s-1.435,0.383-2.2,0.479c-0.765,0.096-1.53,0-2.295-0.096c-0.765-0.096-1.53-0.287-2.104-0.574
			c-1.147-0.478-2.104-1.243-2.869-2.104c-0.765-0.956-1.339-1.912-1.721-3.06c-0.383-1.052-0.479-2.199-0.479-3.442
			C217.929,622.201,218.216,621.149,218.694,620.098z"/>
		<path fill="#FFFFFF" d="M241.549,638.84c-1.243-0.383-2.295-0.956-3.156-1.817c-0.86-0.765-1.53-1.721-2.008-2.772
			c-0.478-1.052-0.765-2.104-0.86-3.348s0.096-2.295,0.382-3.347c0.383-1.147,0.957-2.199,1.721-3.06
			c0.765-0.861,1.626-1.626,2.678-2.199c0.956-0.574,2.104-0.957,3.251-1.053c1.148-0.19,2.391,0,3.539,0.383
			c1.243,0.383,2.295,0.956,3.155,1.817c0.861,0.86,1.53,1.721,2.008,2.772s0.765,2.199,0.765,3.348
			c0.095,1.147-0.096,2.295-0.383,3.347c-0.382,1.147-0.956,2.199-1.625,3.06c-0.765,0.86-1.625,1.626-2.582,2.199
			c-0.956,0.574-2.104,0.957-3.251,1.052C243.939,639.317,242.792,639.222,241.549,638.84z M239.35,628.607
			c-0.191,0.766-0.383,1.53-0.383,2.2c0,0.765,0.096,1.434,0.383,2.104c0.287,0.669,0.669,1.243,1.147,1.721
			c0.478,0.479,1.147,0.861,1.912,1.147c0.765,0.287,1.53,0.287,2.295,0.191c0.765-0.096,1.338-0.382,2.008-0.86
			c0.574-0.383,1.147-0.956,1.53-1.53c0.478-0.573,0.765-1.243,0.956-2.008s0.382-1.53,0.287-2.295c0-0.766-0.191-1.435-0.383-2.104
			c-0.287-0.67-0.669-1.243-1.147-1.722s-1.147-0.86-1.913-1.147c-0.765-0.287-1.53-0.287-2.295-0.191s-1.434,0.383-2.008,0.765
			c-0.574,0.383-1.052,0.957-1.53,1.53C239.923,627.174,239.541,627.843,239.35,628.607z"/>
		<path fill="#FFFFFF" d="M260.865,632.051l-2.295,11.283l-3.442-0.669l3.634-17.5l2.677,0.574l6.79,13.388l2.391-11.476l3.442,0.67
			l-3.633,17.499l-2.773-0.574L260.865,632.051z"/>
		<path fill="#FFFFFF" d="M276.452,637.597c0.096-1.052,0.383-2.104,0.957-3.155c0.478-1.053,1.147-1.913,2.008-2.678
			c0.861-0.766,1.817-1.339,2.965-1.722c1.147-0.382,2.391-0.573,3.825-0.382c1.625,0.19,3.06,0.669,4.112,1.529
			c1.147,0.861,1.913,1.913,2.391,3.061l-2.869,1.529c-0.191-0.573-0.382-0.956-0.765-1.338c-0.287-0.383-0.669-0.67-0.956-0.957
			c-0.382-0.286-0.765-0.478-1.147-0.573c-0.383-0.096-0.861-0.191-1.243-0.287c-0.861-0.096-1.625,0-2.295,0.287
			s-1.243,0.669-1.721,1.243c-0.478,0.478-0.861,1.147-1.147,1.816c-0.287,0.67-0.479,1.339-0.574,2.104
			c-0.096,0.765,0,1.529,0.095,2.295c0.191,0.765,0.479,1.434,0.861,2.008c0.382,0.573,0.86,1.147,1.53,1.53
			c0.574,0.382,1.339,0.669,2.104,0.765c0.382,0,0.86,0,1.243,0c0.478-0.096,0.86-0.191,1.243-0.383
			c0.382-0.191,0.765-0.382,1.147-0.765c0.382-0.287,0.669-0.67,0.956-1.147l2.678,1.912c-0.383,0.67-0.861,1.147-1.435,1.626
			s-1.243,0.86-1.913,1.147s-1.434,0.479-2.199,0.573c-0.765,0.096-1.53,0.096-2.199,0c-1.243-0.095-2.391-0.478-3.443-1.147
			c-0.956-0.669-1.816-1.434-2.486-2.391c-0.669-0.956-1.148-2.008-1.435-3.155C276.452,639.796,276.356,638.648,276.452,637.597z"
			/>
		<path fill="#FFFFFF" d="M303.801,648.689c-1.339,0-2.486-0.287-3.538-0.861c-1.052-0.573-2.008-1.243-2.678-2.104
			c-0.765-0.86-1.339-1.816-1.721-2.964c-0.382-1.053-0.574-2.2-0.574-3.348s0.287-2.295,0.765-3.442
			c0.478-1.052,1.052-2.008,1.912-2.868c0.765-0.861,1.722-1.53,2.773-1.913c1.052-0.478,2.295-0.669,3.538-0.669
			c1.339,0,2.486,0.287,3.538,0.86c1.053,0.574,1.913,1.243,2.678,2.104c0.766,0.861,1.339,1.817,1.722,2.965
			c0.382,1.052,0.573,2.199,0.573,3.347s-0.286,2.295-0.669,3.442c-0.479,1.052-1.052,2.008-1.817,2.869
			c-0.765,0.86-1.721,1.434-2.772,1.912C306.191,648.498,305.044,648.689,303.801,648.689z M298.732,639.509
			c0,0.766,0.096,1.53,0.287,2.295c0.191,0.766,0.574,1.339,0.956,1.913c0.382,0.573,0.956,1.052,1.625,1.339
			c0.669,0.382,1.339,0.573,2.2,0.573c0.86,0,1.625-0.191,2.199-0.478c0.669-0.287,1.243-0.766,1.626-1.339
			c0.478-0.574,0.765-1.243,1.052-1.913c0.191-0.669,0.382-1.435,0.382-2.199s-0.095-1.53-0.286-2.295s-0.574-1.339-0.957-1.912
			c-0.478-0.574-0.956-1.052-1.625-1.339c-0.669-0.383-1.339-0.479-2.2-0.574c-0.86,0-1.625,0.191-2.295,0.479
			s-1.243,0.765-1.625,1.339c-0.478,0.573-0.765,1.147-1.052,1.912C298.828,638.074,298.732,638.84,298.732,639.509z"/>
		<path fill="#FFFFFF" d="M317.857,648.402l-1.53-17.882l7.938-0.67c0.86-0.096,1.625,0,2.295,0.287
			c0.765,0.287,1.339,0.67,1.912,1.243c0.574,0.479,0.956,1.147,1.339,1.817c0.383,0.669,0.574,1.434,0.574,2.104
			c0.096,1.147-0.096,2.199-0.574,3.251s-1.243,1.722-2.199,2.295l4.686,6.407l-3.921,0.287l-4.111-5.643l-3.442,0.287l0.478,6.024
			L317.857,648.402z M320.535,639.031l4.303-0.383c0.287,0,0.574-0.096,0.861-0.287c0.286-0.191,0.478-0.382,0.669-0.669
			s0.287-0.574,0.383-0.956c0.096-0.383,0.096-0.766,0.096-1.147c0-0.383-0.096-0.766-0.287-1.148
			c-0.191-0.382-0.383-0.669-0.574-0.86c-0.286-0.287-0.478-0.383-0.86-0.573c-0.287-0.096-0.574-0.191-0.956-0.096l-4.208,0.382
			L320.535,639.031z"/>
		<path fill="#FFFFFF" d="M337.078,646.489l-3.155-17.595l6.406-1.147c1.435-0.287,2.773-0.287,3.921,0s2.199,0.765,3.061,1.435
			c0.86,0.669,1.625,1.53,2.104,2.486c0.573,0.956,0.956,2.104,1.147,3.347c0.287,1.339,0.287,2.582,0.096,3.729
			s-0.67,2.199-1.243,3.06c-0.67,0.861-1.435,1.626-2.391,2.296c-0.956,0.573-2.104,1.052-3.442,1.242L337.078,646.489z
			 M347.119,635.493c-0.191-0.861-0.383-1.626-0.766-2.295c-0.382-0.67-0.765-1.243-1.339-1.626
			c-0.573-0.479-1.147-0.765-1.912-0.86c-0.669-0.191-1.435-0.191-2.295,0l-2.965,0.573l2.104,11.57l2.964-0.573
			c0.86-0.191,1.53-0.479,2.199-0.86c0.574-0.383,1.052-0.957,1.435-1.53c0.383-0.574,0.574-1.243,0.67-2.008
			C347.31,637.118,347.31,636.354,347.119,635.493z"/>
		<path fill="#FFFFFF" d="M364.905,628.417l3.538,10.9l-3.347,1.053l-5.547-17.021l2.582-0.86l12.527,8.224l-3.634-11.188
			l3.347-1.052l5.546,17.021l-2.678,0.86L364.905,628.417z"/>
		<path fill="#FFFFFF" d="M381.161,625.356c-0.478-0.956-0.669-2.104-0.765-3.251s0.096-2.199,0.382-3.347
			c0.383-1.052,0.957-2.104,1.722-2.965s1.816-1.626,3.06-2.199c1.53-0.669,2.965-0.956,4.304-0.765
			c1.435,0.19,2.582,0.669,3.634,1.529l-1.722,2.773c-0.382-0.383-0.86-0.669-1.339-0.86c-0.478-0.191-0.86-0.287-1.339-0.287
			c-0.478,0-0.86,0-1.242,0.096c-0.383,0.096-0.861,0.191-1.148,0.383c-0.765,0.382-1.434,0.86-1.912,1.434
			c-0.479,0.574-0.765,1.243-0.956,1.913c-0.191,0.669-0.191,1.435-0.096,2.104c0.096,0.765,0.287,1.435,0.573,2.104
			c0.287,0.766,0.766,1.339,1.243,1.913c0.574,0.573,1.147,1.052,1.722,1.339c0.669,0.286,1.339,0.478,2.104,0.573
			c0.766,0,1.435-0.096,2.199-0.383c0.383-0.19,0.766-0.382,1.053-0.669c0.382-0.287,0.669-0.574,0.956-0.956
			c0.286-0.383,0.478-0.766,0.669-1.243c0.191-0.479,0.287-0.956,0.191-1.435l3.251,0.383c0,0.765-0.096,1.435-0.382,2.104
			c-0.287,0.669-0.67,1.339-1.147,1.912c-0.479,0.574-0.957,1.147-1.626,1.626c-0.574,0.479-1.243,0.86-1.912,1.147
			c-1.148,0.479-2.391,0.765-3.539,0.669c-1.147-0.095-2.295-0.382-3.347-0.86c-1.052-0.478-2.008-1.147-2.868-2.008
			C382.309,627.364,381.64,626.408,381.161,625.356z"/>
	</g>
</g>
</svg>
